<svg width="500" height="500" viewBox="0 0 500 500" fill="none" xmlns="http://www.w3.org/2000/svg">
<path d="M55 235L13 281.336L55 327" stroke="#F07A15" stroke-width="12" stroke-linecap="round" stroke-linejoin="round"/>
<path d="M445 239L487 285.336L445 331" stroke="#F07A15" stroke-width="12" stroke-linecap="round" stroke-linejoin="round"/>
<g filter="url(#filter0_d_1_22)">
<path d="M202 191.605C196.5 175.531 199.995 157.605 199.995 157.605C199.995 157.605 202.563 138.232 221.495 122.105C234.995 110.605 253.837 101.469 272.5 101.031C292.859 100.553 306.992 105.606 323.5 117.531C333.5 124.754 342.583 139.605 345.995 150.105C349.407 160.605 349.097 166.429 345.995 177.531C345.995 177.531 339 173.031 334.5 173.031C321.97 173.031 325.151 188.329 316.104 194.231C311.421 197.286 308.875 198.463 300.604 200.531C290.604 203.031 289.398 206.452 287.5 213.031C285.673 219.364 290.5 227.074 303 230.5C315.5 233.926 305.43 244.15 309.5 245.105C328.279 249.513 343.946 256.495 353.495 270.105C363.701 284.652 366.463 293.746 365.995 310.105C365.405 330.707 358.995 345.105 349.995 355.605C340.995 366.105 329.671 375.769 316.495 383.105C296.383 394.302 265.518 398.107 242.5 398C220.058 397.896 198 396.5 176 392.5C152.183 388.17 137.045 378.599 131.5 375.5C114.5 366 105.525 356 99.5 348.5C88.0685 334.271 85 322 80.5 303.5C76.95 288.906 76.3475 266.081 77.495 251.105C78.4013 239.278 78.8936 214.074 90.495 211.605C102.251 209.103 100.5 221 116 229C131.5 237 141.055 239.764 158 243.5C186.609 249.808 223.5 254.031 233 245.105C238.156 240.261 227.995 234.179 221.495 227.605C214.995 221.031 205.658 202.297 202 191.605Z" fill="#F0D315"/>
<path d="M202 191.605C196.5 175.531 199.995 157.605 199.995 157.605C199.995 157.605 202.563 138.232 221.495 122.105C234.995 110.605 253.837 101.469 272.5 101.031C292.859 100.553 306.992 105.606 323.5 117.531C333.5 124.754 342.583 139.605 345.995 150.105C349.407 160.605 349.097 166.429 345.995 177.531C345.995 177.531 339 173.031 334.5 173.031C321.97 173.031 325.151 188.329 316.104 194.231C311.421 197.286 308.875 198.463 300.604 200.531C290.604 203.031 289.398 206.452 287.5 213.031C285.673 219.364 290.5 227.074 303 230.5C315.5 233.926 305.43 244.15 309.5 245.105C328.279 249.513 343.946 256.495 353.495 270.105C363.701 284.652 366.463 293.746 365.995 310.105C365.405 330.707 358.995 345.105 349.995 355.605C340.995 366.105 329.671 375.769 316.495 383.105C296.383 394.302 265.518 398.107 242.5 398C220.058 397.896 198 396.5 176 392.5C152.183 388.17 137.045 378.599 131.5 375.5C114.5 366 105.525 356 99.5 348.5C88.0685 334.271 85 322 80.5 303.5C76.95 288.906 76.3475 266.081 77.495 251.105C78.4013 239.278 78.8936 214.074 90.495 211.605C102.251 209.103 100.5 221 116 229C131.5 237 141.055 239.764 158 243.5C186.609 249.808 223.5 254.031 233 245.105C238.156 240.261 227.995 234.179 221.495 227.605C214.995 221.031 205.658 202.297 202 191.605Z" stroke="black" stroke-width="8" stroke-miterlimit="1.01516"/>
</g>
<path d="M109.419 281.503C113.109 291.739 125.831 296.986 125.831 296.986L116.072 293.989L109.419 290.992C109.419 290.992 110.884 299.762 112.524 304.477C116.379 315.561 117.924 321.047 125.831 328.949C129.927 333.044 132.579 335.434 137.363 338.439C144.641 343.009 151.492 346.504 159.541 348.927C168.511 351.627 170.683 352.691 179.945 353.422C188.067 354.063 194.915 354.389 203.011 353.422C210.037 352.582 219.427 350.735 225.632 346.929C232.745 342.567 234.792 341.277 238.939 333.444C242.201 327.284 242.747 321.135 242.931 313.966C243.129 306.254 241.807 300.807 238.939 293.989C236 287 231.351 282.835 221.64 279.505C202.087 272.801 168.81 280.092 148.5 277.5C134.12 275.665 130.5 273.5 123 269C115.5 264.5 114.789 260.436 109.419 254C109.419 254 106.226 272.648 109.419 281.503Z" fill="#F7EC93"/>
<path d="M125.831 296.986L124.656 300.809C126.699 301.437 128.874 300.348 129.596 298.337C130.317 296.326 129.331 294.102 127.356 293.288L125.831 296.986ZM109.419 281.503L113.182 280.147L109.419 281.503ZM109.419 254L112.49 251.438L106.939 244.783L105.476 253.325L109.419 254ZM148.5 277.5L147.994 281.468L148.5 277.5ZM221.64 279.505L222.938 275.722L221.64 279.505ZM125.831 328.949L128.658 326.12L125.831 328.949ZM112.524 304.477L116.302 303.163L112.524 304.477ZM109.419 290.992L111.061 287.345L104.241 284.273L105.474 291.652L109.419 290.992ZM159.541 348.927L158.388 352.757L159.541 348.927ZM137.363 338.439L135.236 341.826H135.236L137.363 338.439ZM238.939 293.989L242.626 292.438V292.438L238.939 293.989ZM242.931 313.966L238.933 313.864L242.931 313.966ZM238.939 333.444L235.404 331.573L238.939 333.444ZM225.632 346.929L223.541 343.519L225.632 346.929ZM179.945 353.422L179.631 357.409L179.945 353.422ZM203.011 353.422L202.536 349.45H202.536L203.011 353.422ZM116.072 293.989L114.43 297.636C114.582 297.705 114.738 297.764 114.898 297.813L116.072 293.989ZM125.831 296.986C127.356 293.288 127.357 293.288 127.358 293.289C127.358 293.289 127.359 293.289 127.359 293.289C127.36 293.29 127.361 293.29 127.362 293.29C127.363 293.291 127.364 293.291 127.364 293.291C127.363 293.291 127.36 293.289 127.354 293.287C127.341 293.282 127.317 293.271 127.283 293.256C127.213 293.226 127.1 293.176 126.949 293.107C126.648 292.968 126.196 292.752 125.634 292.459C124.507 291.871 122.966 290.989 121.328 289.824C117.962 287.429 114.624 284.148 113.182 280.147L105.656 282.86C107.904 289.095 112.772 293.554 116.69 296.342C118.693 297.768 120.563 298.837 121.936 299.553C122.625 299.912 123.196 300.186 123.604 300.374C123.808 300.468 123.973 300.541 124.091 300.592C124.151 300.618 124.199 300.638 124.234 300.654C124.252 300.661 124.267 300.668 124.279 300.673C124.285 300.675 124.29 300.677 124.295 300.679C124.297 300.68 124.299 300.681 124.301 300.682C124.302 300.682 124.303 300.682 124.303 300.683C124.305 300.683 124.306 300.684 125.831 296.986ZM113.182 280.147C111.903 276.599 111.811 270.503 112.212 264.707C112.404 261.927 112.694 259.405 112.935 257.576C113.056 256.664 113.164 255.929 113.241 255.426C113.28 255.175 113.311 254.982 113.332 254.855C113.342 254.791 113.35 254.743 113.355 254.713C113.358 254.698 113.359 254.687 113.36 254.681C113.361 254.678 113.361 254.676 113.362 254.675C113.362 254.674 113.362 254.674 113.362 254.674C113.362 254.674 113.362 254.674 113.362 254.674C113.362 254.675 113.361 254.675 109.419 254C105.476 253.325 105.476 253.326 105.476 253.326C105.476 253.327 105.476 253.327 105.476 253.328C105.476 253.329 105.475 253.33 105.475 253.332C105.474 253.336 105.474 253.34 105.473 253.346C105.471 253.358 105.468 253.374 105.465 253.394C105.458 253.435 105.448 253.493 105.436 253.568C105.411 253.718 105.377 253.935 105.334 254.211C105.25 254.762 105.133 255.554 105.004 256.528C104.747 258.473 104.438 261.166 104.231 264.155C103.834 269.896 103.742 277.552 105.656 282.86L113.182 280.147ZM106.347 256.562C107.582 258.042 108.557 259.395 109.463 260.703C110.335 261.963 111.257 263.354 112.21 264.626C114.266 267.368 116.693 269.88 120.942 272.43L125.058 265.57C121.807 263.62 120.128 261.85 118.611 259.827C117.778 258.716 117.046 257.603 116.04 256.149C115.068 254.745 113.941 253.176 112.49 251.438L106.347 256.562ZM120.942 272.43C124.655 274.658 127.745 276.522 131.794 278.005C135.838 279.486 140.673 280.534 147.994 281.468L149.006 273.532C141.947 272.631 137.782 271.678 134.546 270.493C131.315 269.31 128.845 267.842 125.058 265.57L120.942 272.43ZM147.994 281.468C158.61 282.823 172.563 281.601 185.552 280.956C198.964 280.29 211.406 280.225 220.343 283.289L222.938 275.722C212.321 272.082 198.348 272.31 185.155 272.966C171.54 273.642 158.7 274.769 149.006 273.532L147.994 281.468ZM128.658 326.12C121.481 318.946 120.177 314.305 116.302 303.163L108.746 305.791C112.581 316.818 114.368 323.147 123.003 331.778L128.658 326.12ZM116.302 303.163C115.576 301.077 114.844 297.932 114.275 295.162C113.996 293.808 113.768 292.594 113.609 291.72C113.529 291.284 113.468 290.933 113.426 290.694C113.405 290.574 113.389 290.482 113.379 290.421C113.374 290.39 113.37 290.367 113.367 290.353C113.366 290.345 113.365 290.34 113.365 290.337C113.364 290.335 113.364 290.334 113.364 290.333C113.364 290.333 113.364 290.333 113.364 290.333C113.364 290.333 113.364 290.333 113.364 290.333C113.364 290.333 113.364 290.333 109.419 290.992C105.474 291.652 105.474 291.652 105.474 291.652C105.474 291.652 105.474 291.652 105.474 291.653C105.474 291.653 105.474 291.654 105.474 291.655C105.474 291.656 105.475 291.658 105.475 291.661C105.476 291.666 105.477 291.673 105.479 291.683C105.482 291.702 105.487 291.729 105.492 291.763C105.504 291.833 105.522 291.934 105.544 292.063C105.589 292.322 105.654 292.693 105.738 293.152C105.905 294.07 106.145 295.344 106.438 296.771C107.012 299.565 107.832 303.162 108.746 305.791L116.302 303.163ZM160.694 345.097C153.093 342.808 146.575 339.5 139.491 335.051L135.236 341.826C142.707 346.518 149.89 350.199 158.388 352.757L160.694 345.097ZM139.491 335.051C135.058 332.268 132.645 330.105 128.658 326.12L123.003 331.778C127.209 335.983 130.1 338.601 135.236 341.826L139.491 335.051ZM220.343 283.289C224.92 284.858 228.007 286.527 230.239 288.423C232.424 290.28 233.981 292.518 235.252 295.54L242.626 292.438C240.958 288.471 238.721 285.132 235.419 282.327C232.164 279.561 228.072 277.482 222.938 275.722L220.343 283.289ZM235.252 295.54C237.944 301.94 239.113 306.821 238.933 313.864L246.93 314.069C247.145 305.686 245.67 299.675 242.626 292.438L235.252 295.54ZM238.933 313.864C238.751 320.934 238.205 326.283 235.404 331.573L242.474 335.316C246.196 328.286 246.744 321.336 246.93 314.069L238.933 313.864ZM235.404 331.573C233.403 335.353 232.09 337.196 230.624 338.606C229.08 340.092 227.201 341.275 223.541 343.519L227.724 350.339C231.176 348.221 233.877 346.578 236.171 344.371C238.544 342.087 240.329 339.369 242.474 335.316L235.404 331.573ZM180.26 349.434C171.503 348.743 169.753 347.823 160.694 345.097L158.388 352.757C167.27 355.431 169.864 356.638 179.631 357.409L180.26 349.434ZM223.541 343.519C218.131 346.838 209.5 348.618 202.536 349.45L203.485 357.394C210.575 356.547 220.723 354.632 227.724 350.339L223.541 343.519ZM202.536 349.45C194.841 350.369 188.31 350.069 180.26 349.434L179.631 357.409C187.824 358.056 194.988 358.409 203.485 357.394L202.536 349.45ZM107.776 294.64L114.43 297.636L117.715 290.342L111.061 287.345L107.776 294.64ZM114.898 297.813L124.656 300.809L127.005 293.162L117.246 290.165L114.898 297.813Z" fill="black"/>
<path d="M353.5 214.531C353.5 214.531 375.5 224.031 377.5 233.031C379.5 242.031 355.075 238.442 340.5 238.031C328.435 237.691 321.315 237.233 310 233.031C300.986 229.683 292.454 230.296 288.5 221.531C285.77 215.479 286.641 213.031 288.5 209.531C293.194 200.694 304.275 201.43 313 196.531C324.076 190.311 323.301 173.246 336 173.531C343.683 173.703 345.982 180.938 353.5 182.531C359.422 183.785 363.045 183.619 369 182.531C377.251 181.023 380.463 171.131 388.5 173.531C400.632 177.154 387.277 195.985 377.5 204.031C369.961 210.235 353.5 214.531 353.5 214.531Z" fill="#F07A15" stroke="black" stroke-width="8"/>
<ellipse cx="270" cy="161.531" rx="17" ry="21.5" fill="black"/>
<path d="M306.5 216.531C306.5 216.531 317.715 220.928 325 220.531C332.604 220.116 341.83 215.706 348.5 212.031C357.29 207.187 354.373 207.92 362.5 202.031C365.22 200.06 370.5 195.031 370.5 195.031" stroke="black" stroke-width="7" stroke-miterlimit="16" stroke-linecap="round" stroke-linejoin="bevel"/>
<circle cx="269.5" cy="154.531" r="7.5" fill="white"/>
<path d="M429 225L382 344" stroke="#F07A15" stroke-width="12" stroke-miterlimit="16" stroke-linecap="round" stroke-linejoin="bevel"/>
<defs>
<filter id="filter0_d_1_22" x="68.9672" y="97.0001" width="305.077" height="313.002" filterUnits="userSpaceOnUse" color-interpolation-filters="sRGB">
<feFlood flood-opacity="0" result="BackgroundImageFix"/>
<feColorMatrix in="SourceAlpha" type="matrix" values="0 0 0 0 0 0 0 0 0 0 0 0 0 0 0 0 0 0 127 0" result="hardAlpha"/>
<feOffset dy="4"/>
<feGaussianBlur stdDeviation="2"/>
<feComposite in2="hardAlpha" operator="out"/>
<feColorMatrix type="matrix" values="0 0 0 0 0 0 0 0 0 0 0 0 0 0 0 0 0 0 0.25 0"/>
<feBlend mode="normal" in2="BackgroundImageFix" result="effect1_dropShadow_1_22"/>
<feBlend mode="normal" in="SourceGraphic" in2="effect1_dropShadow_1_22" result="shape"/>
</filter>
</defs>
</svg>
